<svg width="924" height="628" viewBox="0 0 924 628" fill="none" xmlns="http://www.w3.org/2000/svg">
<g clip-path="url(#clip0)">
<path d="M511.061 291.5H278.079C274.361 291.496 270.797 290.017 268.168 287.388C265.539 284.759 264.06 281.195 264.056 277.477V175.354C264.06 171.636 265.539 168.071 268.168 165.442C270.797 162.813 274.361 161.334 278.079 161.33H511.061C514.779 161.334 518.343 162.813 520.972 165.442C523.601 168.071 525.08 171.636 525.084 175.354V277.477C525.08 281.194 523.601 284.759 520.972 287.388C518.343 290.017 514.779 291.496 511.061 291.5V291.5Z" fill="#E6E6E6"/>
<path d="M17 41C26.3888 41 34 33.3889 34 24C34 14.6112 26.3888 7.00002 17 7.00002C7.61116 7.00002 0 14.6112 0 24C0 33.3889 7.61116 41 17 41Z" fill="#266AFB"/>
<path d="M22 36C18.44 36 14.9598 34.9443 11.9997 32.9665C9.03966 30.9886 6.73256 28.1774 5.37018 24.8883C4.0078 21.5992 3.65134 17.98 4.34587 14.4884C5.04041 10.9967 6.75474 7.78942 9.27208 5.27208C11.7894 2.75473 14.9967 1.0404 18.4884 0.345867C21.98 -0.348667 25.5992 0.00779712 28.8883 1.37017C32.1774 2.73255 34.9886 5.03965 36.9665 7.99974C38.9443 10.9598 40 14.4399 40 18C39.9946 22.7722 38.0965 27.3475 34.722 30.722C31.3475 34.0965 26.7723 35.9946 22 36ZM22 2C18.8355 2 15.7421 2.93838 13.1109 4.69648C10.4797 6.45459 8.42894 8.95345 7.21794 11.8771C6.00694 14.8007 5.69009 18.0177 6.30745 21.1214C6.92481 24.2251 8.44866 27.0761 10.6863 29.3137C12.9239 31.5513 15.7749 33.0752 18.8786 33.6926C21.9823 34.3099 25.1993 33.9931 28.1229 32.7821C31.0466 31.5711 33.5454 29.5203 35.3035 26.8891C37.0616 24.2579 38 21.1645 38 18C37.9952 13.758 36.3079 9.69117 33.3084 6.69163C30.3088 3.6921 26.242 2.00483 22 2V2Z" fill="#3F3D56"/>
<path d="M224 255C233.389 255 241 247.389 241 238C241 228.611 233.389 221 224 221C214.611 221 207 228.611 207 238C207 247.389 214.611 255 224 255Z" fill="#E6E6E6"/>
<path d="M229 250C225.44 250 221.96 248.944 219 246.966C216.04 244.989 213.733 242.177 212.37 238.888C211.008 235.599 210.651 231.98 211.346 228.488C212.04 224.997 213.755 221.789 216.272 219.272C218.789 216.755 221.997 215.04 225.488 214.346C228.98 213.651 232.599 214.008 235.888 215.37C239.177 216.733 241.989 219.04 243.966 222C245.944 224.96 247 228.44 247 232C246.995 236.772 245.096 241.348 241.722 244.722C238.347 248.096 233.772 249.995 229 250V250ZM229 216C225.835 216 222.742 216.938 220.111 218.697C217.48 220.455 215.429 222.953 214.218 225.877C213.007 228.801 212.69 232.018 213.307 235.121C213.925 238.225 215.449 241.076 217.686 243.314C219.924 245.551 222.775 247.075 225.879 247.693C228.982 248.31 232.199 247.993 235.123 246.782C238.047 245.571 240.545 243.52 242.304 240.889C244.062 238.258 245 235.165 245 232C244.995 227.758 243.308 223.691 240.308 220.692C237.309 217.692 233.242 216.005 229 216V216Z" fill="#3F3D56"/>
<path d="M356 126C365.389 126 373 118.389 373 109C373 99.6112 365.389 92 356 92C346.611 92 339 99.6112 339 109C339 118.389 346.611 126 356 126Z" fill="#266AFB"/>
<path d="M361 121C357.44 121 353.96 119.944 351 117.966C348.04 115.989 345.733 113.177 344.37 109.888C343.008 106.599 342.651 102.98 343.346 99.4884C344.04 95.9967 345.755 92.7894 348.272 90.2721C350.789 87.7547 353.997 86.0404 357.488 85.3459C360.98 84.6513 364.599 85.0078 367.888 86.3702C371.177 87.7325 373.989 90.0396 375.966 92.9997C377.944 95.9598 379 99.4399 379 103C378.995 107.772 377.096 112.347 373.722 115.722C370.348 119.096 365.772 120.995 361 121V121ZM361 87C357.835 87 354.742 87.9384 352.111 89.6965C349.48 91.4546 347.429 93.9535 346.218 96.8771C345.007 99.8007 344.69 103.018 345.307 106.121C345.925 109.225 347.449 112.076 349.686 114.314C351.924 116.551 354.775 118.075 357.879 118.693C360.982 119.31 364.199 118.993 367.123 117.782C370.047 116.571 372.545 114.52 374.303 111.889C376.062 109.258 377 106.164 377 103C376.995 98.758 375.308 94.6911 372.308 91.6916C369.309 88.6921 365.242 87.0048 361 87V87Z" fill="#3F3D56"/>
<path d="M285.224 193.145H52.2429C48.5249 193.141 44.9604 191.662 42.3314 189.033C39.7024 186.404 38.2235 182.84 38.2192 179.122V76.999C38.2234 73.281 39.7022 69.7164 42.3313 67.0873C44.9603 64.4582 48.5249 62.9793 52.2429 62.9751H285.224C288.942 62.9793 292.507 64.4582 295.136 67.0873C297.765 69.7164 299.243 73.281 299.248 76.999V179.122C299.243 182.84 297.764 186.404 295.135 189.033C292.506 191.662 288.942 193.141 285.224 193.145V193.145Z" fill="#266AFB"/>
<path d="M300.421 182.67H67.4396C63.589 182.666 59.8975 181.134 57.1747 178.411C54.4519 175.689 52.9204 171.997 52.916 168.146V66.0234C52.9204 62.1729 54.4519 58.4813 57.1747 55.7586C59.8975 53.0359 63.589 51.5043 67.4396 51.5H300.421C304.271 51.5043 307.963 53.0358 310.686 55.7586C313.408 58.4813 314.94 62.1729 314.944 66.0234V168.146C314.94 171.997 313.408 175.689 310.686 178.411C307.963 181.134 304.271 182.666 300.421 182.67V182.67ZM67.4396 53.5C64.1193 53.5038 60.9361 54.8244 58.5883 57.1722C56.2405 59.52 54.9198 62.7032 54.916 66.0234V168.146C54.9198 171.467 56.2405 174.65 58.5883 176.998C60.9361 179.346 64.1193 180.666 67.4396 180.67H300.421C303.741 180.666 306.924 179.346 309.272 176.998C311.62 174.65 312.941 171.467 312.944 168.146V66.0234C312.941 62.7031 311.62 59.52 309.272 57.1722C306.924 54.8244 303.741 53.5038 300.421 53.5H67.4396Z" fill="#3F3D56"/>
<path d="M526.257 281.025H293.276C289.425 281.02 285.734 279.489 283.011 276.766C280.288 274.043 278.757 270.352 278.752 266.501V164.378C278.757 160.528 280.288 156.836 283.011 154.114C285.734 151.391 289.425 149.859 293.276 149.855H526.257C530.107 149.859 533.799 151.391 536.522 154.114C539.245 156.836 540.776 160.528 540.781 164.378V266.501C540.776 270.352 539.245 274.043 536.522 276.766C533.799 279.489 530.107 281.02 526.257 281.025V281.025ZM293.276 151.855C289.956 151.859 286.772 153.179 284.425 155.527C282.077 157.875 280.756 161.058 280.752 164.378V266.501C280.756 269.821 282.077 273.005 284.424 275.353C286.772 277.7 289.956 279.021 293.276 279.025H526.257C529.577 279.021 532.761 277.7 535.108 275.353C537.456 273.005 538.777 269.821 538.781 266.501V164.378C538.777 161.058 537.456 157.875 535.108 155.527C532.76 153.179 529.577 151.859 526.257 151.855H293.276Z" fill="#3F3D56"/>
<path d="M671.708 422.94C670.06 422.937 668.473 422.309 667.271 421.181C666.069 420.053 665.34 418.51 665.232 416.865L664.267 402.137C664.155 400.417 664.73 398.722 665.867 397.426C667.003 396.13 668.608 395.338 670.329 395.226L785.716 387.669C789.389 387.428 793.008 388.657 795.775 391.084C798.543 393.512 800.233 396.939 800.473 400.612C800.714 404.286 799.485 407.904 797.058 410.672C794.631 413.439 791.203 415.129 787.53 415.37L672.143 422.926C671.998 422.935 671.853 422.94 671.708 422.94Z" fill="#266AFB"/>
<path d="M694.461 424.839C692.78 424.836 691.165 424.183 689.955 423.017C688.745 421.85 688.033 420.261 687.968 418.581L687.146 396.583C687.114 395.73 687.25 394.879 687.547 394.079C687.844 393.279 688.296 392.545 688.877 391.919C689.457 391.293 690.156 390.788 690.932 390.432C691.707 390.077 692.546 389.877 693.399 389.845L788.285 386.299C790.008 386.235 791.686 386.857 792.949 388.03C794.213 389.202 794.959 390.829 795.023 392.552L795.846 414.55C795.877 415.403 795.741 416.254 795.444 417.054C795.147 417.854 794.695 418.588 794.115 419.214C793.534 419.839 792.836 420.345 792.06 420.701C791.284 421.056 790.446 421.256 789.593 421.288L694.706 424.834C694.624 424.837 694.542 424.839 694.461 424.839Z" fill="#2F2E41"/>
<path d="M805.652 627.62H790.893C789.169 627.618 787.517 626.932 786.299 625.714C785.08 624.495 784.395 622.843 784.393 621.12V498.105C784.395 496.382 785.08 494.73 786.299 493.511C787.517 492.293 789.169 491.607 790.893 491.605H805.652C807.376 491.607 809.028 492.293 810.246 493.511C811.465 494.73 812.15 496.382 812.152 498.105V621.12C812.15 622.843 811.465 624.495 810.246 625.714C809.028 626.932 807.376 627.618 805.652 627.62Z" fill="#2F2E41"/>
<path d="M776.46 627.62H761.7C759.977 627.618 758.325 626.932 757.106 625.714C755.888 624.495 755.202 622.843 755.2 621.12V498.105C755.202 496.382 755.888 494.73 757.106 493.511C758.325 492.293 759.977 491.607 761.7 491.605H776.46C778.183 491.607 779.835 492.293 781.054 493.511C782.273 494.73 782.958 496.382 782.96 498.105V621.12C782.958 622.843 782.273 624.495 781.054 625.714C779.835 626.932 778.183 627.618 776.46 627.62V627.62Z" fill="#2F2E41"/>
<path d="M783.235 363.227C811.402 363.227 834.235 340.393 834.235 312.227C834.235 284.06 811.402 261.227 783.235 261.227C755.069 261.227 732.235 284.06 732.235 312.227C732.235 340.393 755.069 363.227 783.235 363.227Z" fill="#266AFB"/>
<path d="M760.8 334.69C759.074 334.726 757.36 334.392 755.773 333.71C754.702 333.202 753.755 332.466 752.998 331.553C752.242 330.64 751.694 329.573 751.393 328.426C751.164 327.614 751.126 326.76 751.281 325.931C751.437 325.102 751.782 324.32 752.29 323.646C753.622 321.937 755.922 321.124 758.628 321.332L751.93 302.583L753.813 301.91L761.687 323.952L759.912 323.549C757.854 323.083 755.184 323.186 753.867 324.875C753.549 325.312 753.335 325.816 753.242 326.348C753.15 326.881 753.182 327.427 753.335 327.945C753.563 328.798 753.973 329.592 754.536 330.272C755.099 330.952 755.801 331.503 756.596 331.887C759.379 333.144 762.638 332.697 766.299 332.033L766.656 334.001C764.729 334.405 762.769 334.636 760.8 334.69Z" fill="#2F2E41"/>
<path d="M742.69 306.263L732.148 308.477L732.56 310.434L743.101 308.22L742.69 306.263Z" fill="#2F2E41"/>
<path d="M775.963 299.272L765.422 301.486L765.833 303.443L776.375 301.229L775.963 299.272Z" fill="#2F2E41"/>
<path d="M627.784 426.82L685.273 458.398C685.607 458.62 685.984 458.766 686.38 458.825C686.776 458.885 687.179 458.857 687.563 458.744C687.947 458.631 688.301 458.435 688.601 458.17C688.901 457.905 689.139 457.578 689.299 457.211L703.382 427.774C703.649 426.934 703.606 426.027 703.26 425.217C702.914 424.408 702.289 423.749 701.499 423.361L653.768 398.758C653.18 398.405 652.482 398.281 651.808 398.409C651.135 398.538 650.532 398.911 650.116 399.457L626.274 421.918C625.814 422.737 625.699 423.705 625.953 424.609C626.207 425.513 626.81 426.279 627.629 426.739C627.68 426.767 627.732 426.794 627.784 426.82Z" fill="#3F3D56"/>
<path d="M631.62 422.471L685.516 453.277L699.858 427.427L653.623 402.284L631.62 422.471Z" fill="white"/>
<path d="M677.868 413.743C678.155 413.504 678.16 413.037 677.879 412.701C677.598 412.364 677.138 412.286 676.851 412.525C676.564 412.764 676.559 413.231 676.84 413.568C677.121 413.904 677.581 413.983 677.868 413.743Z" fill="#F2F2F2"/>
<path d="M657.688 439.986C657.879 439.827 657.882 439.515 657.695 439.291C657.508 439.067 657.201 439.014 657.01 439.174C656.819 439.333 656.815 439.645 657.002 439.869C657.19 440.093 657.496 440.146 657.688 439.986Z" fill="#F2F2F2"/>
<path d="M825.821 531.11H739.821C737.567 531.108 735.406 530.211 733.813 528.618C732.219 527.024 731.323 524.864 731.321 522.61L749.325 384.546C749.339 382.303 750.241 380.156 751.833 378.576C753.424 376.995 755.577 376.109 757.821 376.11H788.341C800.531 376.124 812.218 380.973 820.838 389.593C829.458 398.213 834.307 409.9 834.321 422.09V522.61C834.318 524.864 833.422 527.024 831.828 528.618C830.235 530.211 828.074 531.108 825.821 531.11V531.11Z" fill="#2F2E41"/>
<path d="M767.08 375.61L743.821 426.61L747.821 383.77C747.81 382.709 748.008 381.656 748.405 380.672C748.801 379.688 749.387 378.791 750.13 378.033C750.873 377.275 751.758 376.671 752.734 376.256C753.711 375.84 754.759 375.621 755.821 375.61H767.08Z" fill="#CCCCCC"/>
<path d="M691.523 473.465C690.268 473.465 689.04 473.103 687.986 472.422C686.932 471.741 686.097 470.77 685.582 469.625L679.541 456.159C679.192 455.38 678.999 454.54 678.974 453.687C678.95 452.833 679.093 451.984 679.397 451.186C679.701 450.388 680.158 449.658 680.744 449.037C681.33 448.416 682.033 447.917 682.811 447.568L788.316 400.238C791.675 398.732 795.494 398.621 798.934 399.93C802.375 401.24 805.154 403.862 806.661 407.221C808.167 410.58 808.278 414.399 806.968 417.839C805.659 421.28 803.036 424.059 799.678 425.565L694.173 472.895C693.34 473.27 692.437 473.465 691.523 473.465V473.465Z" fill="#266AFB"/>
<path d="M722.297 466.512C721.042 466.513 719.813 466.151 718.76 465.47C717.706 464.788 716.871 463.817 716.356 462.673L706.038 439.671C705.334 438.098 705.283 436.31 705.896 434.699C706.51 433.089 707.736 431.787 709.308 431.08L795.942 392.216C796.721 391.866 797.561 391.674 798.415 391.649C799.268 391.624 800.118 391.768 800.915 392.071C801.713 392.375 802.443 392.833 803.064 393.419C803.685 394.005 804.184 394.707 804.534 395.486L814.852 418.487C815.202 419.266 815.394 420.106 815.419 420.959C815.444 421.813 815.3 422.662 814.996 423.46C814.693 424.258 814.235 424.988 813.649 425.609C813.063 426.229 812.361 426.729 811.582 427.078L724.947 465.943C724.114 466.318 723.211 466.512 722.297 466.512V466.512Z" fill="#2F2E41"/>
<path d="M771.919 280.251C763.615 277.192 756.79 285.251 749.266 287.096C742.067 288.861 734.312 284.708 730.467 278.656C725.982 271.595 727.093 262.428 731.173 255.458C735.643 247.823 743.602 243.139 752.037 241.093C761.705 238.748 771.779 239.901 781.32 242.283C790.472 244.426 799.346 247.621 807.763 251.803C815.373 255.742 822.586 261.13 827.034 268.593C831.076 275.375 833.075 283.816 831.075 291.587C829.974 295.598 827.857 299.258 824.93 302.213C821.918 305.402 818.466 308.166 815.657 311.549C811.41 316.663 808.556 325.044 812.744 331.094C813.651 332.418 814.871 333.498 816.295 334.24C818.005 335.131 819.524 332.543 817.809 331.65C814.797 330.081 813.704 326.898 813.785 323.652C813.947 319.968 815.355 316.449 817.779 313.67C820.721 310.134 824.358 307.272 827.464 303.892C830.47 300.743 832.669 296.913 833.876 292.73C836.084 284.64 834.358 275.828 830.45 268.54C826.222 260.652 819.134 254.696 811.42 250.368C803.026 245.657 793.697 242.5 784.434 239.993C774.495 237.303 764.058 235.788 753.831 237.65C744.965 239.264 736.3 243.544 730.724 250.786C725.52 257.545 723.034 266.759 725.55 275.077C726.745 278.843 728.922 282.223 731.856 284.869C734.791 287.514 738.378 289.33 742.247 290.129C746.181 290.853 750.244 290.323 753.861 288.614C757.758 286.868 761.297 284.153 765.442 282.992C767.301 282.424 769.295 282.477 771.122 283.144C772.936 283.812 773.719 280.914 771.919 280.251V280.251Z" fill="#2F2E41"/>
<path d="M922.181 627.545H601.887C601.572 627.544 601.27 627.418 601.048 627.195C600.825 626.972 600.7 626.669 600.7 626.354C600.7 626.039 600.825 625.737 601.048 625.513C601.27 625.29 601.572 625.164 601.887 625.163H922.181C922.497 625.163 922.8 625.289 923.023 625.512C923.247 625.736 923.372 626.038 923.372 626.354C923.372 626.67 923.247 626.973 923.023 627.196C922.8 627.419 922.497 627.545 922.181 627.545Z" fill="#3F3D56"/>
</g>
<defs>
<clipPath id="clip0">
<rect width="923.372" height="627.62" fill="white"/>
</clipPath>
</defs>
</svg>
